<svg width="19" height="16" viewBox="0 0 19 16" fill="none" xmlns="http://www.w3.org/2000/svg">
<path d="M9.1 12.9152C10.1975 12.9152 11.1077 12.5454 11.8307 11.8058C12.5537 11.0661 12.9152 10.1642 12.9152 9.1C12.9152 8.0525 12.5537 7.15475 11.8307 6.40675C11.1077 5.65875 10.1975 5.28475 9.1 5.28475C8.0025 5.28475 7.09225 5.65875 6.36925 6.40675C5.64625 7.15475 5.28475 8.05667 5.28475 9.1125C5.28475 10.1683 5.64625 11.0661 6.36925 11.8058C7.09225 12.5454 8.0025 12.9152 9.1 12.9152ZM9.1 11.6155C8.3615 11.6155 7.75767 11.3714 7.2885 10.8833C6.81917 10.3953 6.5845 9.7925 6.5845 9.075C6.5845 8.3715 6.81917 7.78058 7.2885 7.30225C7.75767 6.82375 8.3615 6.5845 9.1 6.5845C9.8385 6.5845 10.4423 6.82375 10.9115 7.30225C11.3808 7.78058 11.6155 8.3715 11.6155 9.075C11.6155 9.7925 11.3808 10.3953 10.9115 10.8833C10.4423 11.3714 9.8385 11.6155 9.1 11.6155ZM1.60775 15.8C1.16925 15.8 0.791667 15.6417 0.475 15.325C0.158333 15.0083 0 14.6308 0 14.1923V4.00775C0 3.56925 0.158333 3.19167 0.475 2.875C0.791667 2.55833 1.16925 2.4 1.60775 2.4H4.5115L5.81925 0.65775C5.98342 0.443583 6.17908 0.280416 6.40625 0.16825C6.63358 0.0560829 6.87317 0 7.125 0H11.0795C11.3342 0 11.5737 0.0560829 11.798 0.16825C12.0223 0.280416 12.2166 0.443583 12.3807 0.65775L13.6885 2.4H16.5923C17.0424 2.4 17.4229 2.55833 17.7337 2.875C18.0446 3.19167 18.2 3.56925 18.2 4.00775V14.1923C18.2 14.6308 18.0446 15.0083 17.7337 15.325C17.4229 15.6417 17.0424 15.8 16.5923 15.8H1.60775ZM1.60775 14.5H16.5923C16.6821 14.5 16.7558 14.4712 16.8135 14.4135C16.8712 14.3558 16.9 14.2821 16.9 14.1923V4.00775C16.9 3.91792 16.8712 3.84417 16.8135 3.7865C16.7558 3.72883 16.6821 3.7 16.5923 3.7H13.0193L11.2072 1.3H6.9905L5.18075 3.7H1.60775C1.51792 3.7 1.44417 3.72883 1.3865 3.7865C1.32883 3.84417 1.3 3.91792 1.3 4.00775V14.1923C1.3 14.2821 1.32883 14.3558 1.3865 14.4135C1.44417 14.4712 1.51792 14.5 1.60775 14.5Z" fill="#E3E3E3"/>
</svg>
